<svg width="114" height="52" viewBox="0 0 114 52" fill="none" xmlns="http://www.w3.org/2000/svg">
<g id="actions">
<g id="Group 4">
<g id="Ellipse 1" opacity="0.25">
<path id="Vector" opacity="0.25" d="M87.8638 50.6836C101.395 50.6836 112.364 39.7146 112.364 26.1836C112.364 12.6526 101.395 1.68359 87.8638 1.68359C74.3328 1.68359 63.3638 12.6526 63.3638 26.1836C63.3638 39.7146 74.3328 50.6836 87.8638 50.6836Z" stroke="#33A0FF" stroke-width="2"/>
</g>
<path id="cart_2" fill-rule="evenodd" clip-rule="evenodd" d="M93.9178 29.1386C94.4318 29.1379 94.9297 28.9589 95.3265 28.6321C95.7233 28.3053 95.9945 27.851 96.0938 27.3466L97.2088 21.7736C97.2734 21.4506 97.2656 21.1173 97.1859 20.7977C97.1063 20.4781 96.9568 20.1802 96.7483 19.9252C96.5397 19.6703 96.2773 19.4647 95.9798 19.3234C95.6823 19.182 95.3572 19.1083 95.0278 19.1076H83.9278V17.9926C83.9275 17.6978 83.8105 17.415 83.6023 17.2062C83.3941 16.9975 83.1116 16.8797 82.8168 16.8786H80.6018C80.312 16.8873 80.037 17.0085 79.835 17.2166C79.6331 17.4246 79.5202 17.7032 79.5202 17.9931C79.5202 18.283 79.6331 18.5616 79.835 18.7697C80.037 18.9777 80.312 19.0989 80.6018 19.1076H81.7168V30.2526C81.2755 30.2506 80.8436 30.3797 80.4757 30.6234C80.1078 30.8671 79.8206 31.2145 79.6503 31.6216C79.4801 32.0288 79.4345 32.4772 79.5194 32.9103C79.6043 33.3433 79.8158 33.7415 80.1271 34.0542C80.4384 34.3669 80.8356 34.5802 81.2682 34.667C81.7009 34.7538 82.1496 34.7103 82.5575 34.5419C82.9653 34.3735 83.3141 34.0878 83.5594 33.721C83.8048 33.3542 83.9358 32.9229 83.9358 32.4816H91.7018C91.7036 32.9203 91.8353 33.3486 92.0803 33.7125C92.3253 34.0764 92.6726 34.3595 93.0785 34.5262C93.4843 34.6928 93.9303 34.7355 94.3604 34.6489C94.7904 34.5622 95.1851 34.35 95.4947 34.0392C95.8043 33.7284 96.0148 33.3328 96.0998 32.9024C96.1847 32.472 96.1402 32.0261 95.9719 31.621C95.8036 31.2158 95.5191 30.8696 95.1542 30.6261C94.7893 30.3826 94.3605 30.2526 93.9218 30.2526H83.9348V29.1386H93.9178ZM95.0328 21.3386L93.9178 26.9116H83.9308V21.3386H95.0308H95.0328Z" fill="#33A0FF"/>
</g>
<g id="Group 5">
<g id="Ellipse 2" opacity="0.25">
<path id="Vector_2" opacity="0.25" d="M26.3638 50.6836C40.1709 50.6836 51.3638 39.7146 51.3638 26.1836C51.3638 12.6526 40.1709 1.68359 26.3638 1.68359C12.5567 1.68359 1.36377 12.6526 1.36377 26.1836C1.36377 39.7146 12.5567 50.6836 26.3638 50.6836Z" stroke="#33A0FF" stroke-width="2"/>
</g>
<path id="hearts" fill-rule="evenodd" clip-rule="evenodd" d="M29.2997 20.2216C29.9435 20.2223 30.5735 20.4088 31.1139 20.7587C31.6543 21.1087 32.0822 21.6072 32.3462 22.1945C32.6102 22.7817 32.699 23.4327 32.6021 24.0692C32.5052 24.7057 32.2265 25.3006 31.7997 25.7826C31.1867 26.4736 25.9597 31.3666 25.9597 31.3666C25.9597 31.3666 20.7217 26.4736 20.1087 25.7716C19.5675 25.1642 19.2698 24.3782 19.2727 23.5646C19.2879 22.6879 19.6468 21.8522 20.2721 21.2375C20.8975 20.6228 21.7393 20.2785 22.6162 20.2785C23.4931 20.2785 24.3348 20.6228 24.9602 21.2375C25.5856 21.8522 25.9445 22.6879 25.9597 23.5646C25.9597 23.1255 26.0462 22.6906 26.2142 22.2849C26.3823 21.8792 26.6286 21.5106 26.9391 21.2001C27.2497 20.8896 27.6183 20.6432 28.024 20.4752C28.4297 20.3071 28.8646 20.2207 29.3037 20.2207L29.2997 20.2216ZM29.3037 17.9916C28.0974 17.9895 26.9234 18.381 25.9597 19.1066C24.8557 18.2873 23.4878 17.9048 22.119 18.0329C20.7502 18.161 19.477 18.7905 18.5442 19.8005C17.6114 20.8104 17.0848 22.1295 17.0657 23.5042C17.0466 24.8789 17.5363 26.2121 18.4407 27.2476C19.0667 27.9656 23.1897 31.8256 24.4407 32.9916C24.8536 33.3778 25.3978 33.5926 25.9632 33.5926C26.5285 33.5926 27.0727 33.3778 27.4856 32.9916C28.7296 31.8266 32.8357 27.9767 33.4697 27.2597C34.181 26.4561 34.6452 25.4643 34.8065 24.4033C34.9678 23.3424 34.8194 22.2574 34.379 21.2788C33.9386 20.3001 33.2251 19.4694 32.324 18.8865C31.423 18.3036 30.3728 17.9932 29.2997 17.9926L29.3037 17.9916Z" fill="#33A0FF"/>
</g>
</g>
</svg>
